<svg width="192" height="192" viewBox="0 0 192 192" fill="none" xmlns="http://www.w3.org/2000/svg">
<path fill-rule="evenodd" clip-rule="evenodd" d="M167.466 68.2878C167.814 68.7526 168.021 69.3086 168.059 69.8883L168.96 83.3978C168.986 83.7953 169.092 84.1835 169.27 84.5398L174.742 95.4832C174.912 95.8246 175.016 96.1954 175.048 96.5758L176.949 119.386C176.983 119.791 176.934 120.199 176.805 120.584L172.492 133.523C172.184 134.449 171.444 135.167 170.508 135.447L163.14 137.658C162.408 137.878 161.619 137.81 160.936 137.468L154.338 134.169C154.113 134.057 153.904 133.917 153.715 133.753L139.92 121.798C139.33 121.286 138.564 121.025 137.784 121.069L105.342 122.923C104.488 122.972 103.654 122.654 103.05 122.05L99.3659 118.366C98.5341 117.534 98.2652 116.293 98.6783 115.191L106.75 93.6659C106.914 93.228 106.974 92.7579 106.924 92.2929L104.094 65.8745C104.033 65.3035 104.137 64.727 104.393 64.2133L107.209 58.5821C107.697 57.6059 108.677 56.9718 109.767 56.9264L131.123 56.0365C131.696 56.0127 132.249 55.8254 132.719 55.4968L141.225 49.5423C141.73 49.1893 142.33 49 142.946 49H151.5C152.444 49 153.333 49.4446 153.9 50.2L167.466 68.2878ZM124.132 83.9292C123.403 83.9748 122.715 84.2852 122.198 84.802L114.722 92.2785C114.254 92.7463 113.954 93.3557 113.868 94.0118L111.457 112.496C111.218 114.332 112.682 115.944 114.532 115.882L139.699 115.043C140.529 115.016 141.333 115.333 141.92 115.92L156.565 130.565C156.852 130.852 157.195 131.078 157.572 131.229L160.886 132.554C161.601 132.84 162.399 132.84 163.114 132.554L165.613 131.555C166.486 131.205 167.146 130.466 167.393 129.559L169.859 120.516C169.952 120.175 169.984 119.82 169.954 119.467L168.071 97.8168C168.025 97.2821 167.835 96.7696 167.523 96.3329L165.409 93.3736C164.456 92.0385 162.614 91.7454 161.125 92.4338C160.142 92.8881 159.113 93.2494 158.053 93.5098C155.037 94.2501 151.875 94.1502 148.912 93.2207C145.949 92.2912 143.297 90.5676 141.244 88.2373C140.385 87.262 139.645 86.1957 139.035 85.0615C138.412 83.9049 137.224 83.1105 135.913 83.1925L124.132 83.9292Z" fill="#FF637E"/>
<path fill-rule="evenodd" clip-rule="evenodd" d="M61.1213 54.1213C61.6839 54.6839 62.447 55 63.2426 55H83.0917C83.6839 55 84.263 54.8247 84.7558 54.4962L86.2442 53.5038C86.737 53.1753 87.3161 53 87.9083 53H92.5853C93.9951 53 95.2147 53.9817 95.516 55.3589L101.84 84.268C101.945 84.7486 101.93 85.2477 101.797 85.7213L93.4714 115.324C93.1799 116.36 92.3554 117.161 91.311 117.422L69.8061 122.798C69.2786 122.93 68.7969 123.203 68.4124 123.588L47.5008 144.499C47.1715 144.829 46.77 145.077 46.3281 145.224L36.0656 148.645C35.3785 148.874 34.6317 148.847 33.9631 148.568L24.7068 144.711C23.6603 144.275 22.949 143.286 22.8683 142.156L21.0397 116.556C21.0135 116.188 21.0551 115.819 21.1627 115.467L38.7815 57.7163C38.925 57.246 39.1819 56.8181 39.5296 56.4704L43.1213 52.8787C43.6839 52.3161 44.447 52 45.2426 52H57.7574C58.553 52 59.3161 52.3161 59.8787 52.8787L61.1213 54.1213ZM78.4338 79.7132C76.9784 79.8343 75.8437 80.9919 75.5502 82.4225C74.8329 85.9188 73.271 89.2114 70.9717 91.999C67.7212 95.9397 63.2006 98.6268 58.1855 99.5986C53.1706 100.57 47.9735 99.7664 43.4863 97.3252C42.0528 96.5453 40.7204 95.6136 39.5085 94.5522C37.6055 92.8856 34.2116 93.3636 33.4117 95.7634L27.1727 114.482C27.0585 114.824 27.0071 115.185 27.021 115.546L27.9271 139.105C27.9716 140.262 28.6785 141.291 29.7431 141.747L33.8928 143.525C34.6034 143.83 35.4041 143.848 36.1279 143.577L42.3244 141.253C42.7685 141.087 43.1667 140.817 43.4865 140.467L63.3556 118.706C63.7748 118.247 64.3263 117.929 64.9338 117.797L85.2353 113.384C86.321 113.148 87.1874 112.331 87.4869 111.261L93.5921 89.4567C93.8487 88.5405 93.6554 87.5569 93.0713 86.806L87.9976 80.2826C87.3753 79.4825 86.3909 79.0507 85.3807 79.1348L78.4338 79.7132Z" fill="#FFF1F2"/>
</svg>
